<?xml version="1.0" encoding="UTF-8" standalone="no"?><!DOCTYPE svg PUBLIC "-//W3C//DTD SVG 1.1//EN" "http://www.w3.org/Graphics/SVG/1.1/DTD/svg11.dtd"><svg width="100%" height="100%" viewBox="0 0 8334 6667" version="1.1" xmlns="http://www.w3.org/2000/svg" xmlns:xlink="http://www.w3.org/1999/xlink" xml:space="preserve" xmlns:serif="http://www.serif.com/" style="fill-rule:evenodd;clip-rule:evenodd;stroke-linejoin:round;stroke-miterlimit:2;"><ellipse id="CHEST_MIDDLE" cx="1617.753" cy="1729.308" rx="310.283" ry="162.529" style="fill:#9f36ff;"/><path id="CHEST_LOWER" d="M1625.05,1832.915c154.595,10.341 276.837,67.62 272.809,127.831c-4.028,60.211 -132.809,100.699 -287.404,90.357c-154.595,-10.341 -276.837,-67.62 -272.809,-127.831c4.028,-60.211 132.809,-100.699 287.404,-90.357Z" style="fill:#9f36ff;"/><path id="CHEST_UPPER" d="M1338.462,1592.515c-13.42,-50.429 84.222,-120.255 217.909,-155.832c133.688,-35.578 253.121,-23.52 266.541,26.908c13.42,50.429 -84.222,120.255 -217.909,155.832c-133.688,35.578 -253.121,23.52 -266.541,-26.908Z" style="fill:#9f36ff;"/><path id="DELT_FRONT" d="M1044.441,1587.784c-28.185,-43.918 43.457,-140.235 159.884,-214.954c116.427,-74.719 233.834,-99.725 262.018,-55.808c28.185,43.918 -43.457,140.235 -159.884,214.954c-116.427,74.719 -233.834,99.725 -262.018,55.808Z" style="fill:#9f36ff;"/><path id="DELT_SIDE" d="M1091.313,1820.605c-57.88,-22.729 -83.127,-96.552 -56.345,-164.754c26.782,-68.201 95.516,-105.119 153.396,-82.391c57.88,22.729 83.127,96.552 56.345,164.754c-26.782,68.201 -95.516,105.119 -153.396,82.391Z" style="fill:#9f36ff;"/><path id="BICEPS" d="M989.754,2420.778c-92.02,-36.135 -115.148,-196.821 -51.617,-358.607c63.531,-161.785 189.819,-263.798 281.839,-227.662c92.02,36.135 115.148,196.821 51.617,358.607c-63.531,161.785 -189.819,263.798 -281.839,227.662Z" style="fill:#9f36ff;"/><path id="FOREARMS" d="M735.532,3152.938c-92.02,-36.135 -103.584,-226.271 -25.809,-424.329c77.776,-198.059 215.628,-329.52 307.647,-293.385c92.02,36.135 103.584,226.271 25.809,424.329c-77.776,198.059 -215.628,329.52 -307.647,293.385Z" style="fill:#9f36ff;"/><ellipse id="ABS" cx="1954.465" cy="2664.006" rx="321.27" ry="669.327" style="fill:#9f36ff;"/><ellipse id="QUADS" cx="1510.612" cy="3898.047" rx="265.124" ry="669.327" style="fill:#9f36ff;"/><path id="HIPFLEXORS" d="M1655.235,3439.933c-37.644,-11.764 -48.797,-83.426 -24.889,-159.928c23.908,-76.503 73.88,-129.062 111.524,-117.298c37.644,11.764 48.797,83.426 24.889,159.928c-23.908,76.503 -73.88,129.062 -111.524,117.298Z" style="fill:#9f36ff;"/><path id="HIPFLEXORS1" serif:id="HIPFLEXORS" d="M2238.253,3439.933c37.644,-11.764 48.797,-83.426 24.889,-159.928c-23.908,-76.503 -73.88,-129.062 -111.524,-117.298c-37.644,11.764 -48.797,83.426 -24.889,159.928c23.908,76.503 73.88,129.062 111.524,117.298Z" style="fill:#9f36ff;"/><ellipse id="ADDUCTORS" cx="1838.022" cy="3788.416" rx="78.954" ry="334.664" style="fill:#9f36ff;"/><ellipse id="ADDUCTORS1" serif:id="ADDUCTORS" cx="2065.827" cy="3788.416" rx="78.954" ry="334.664" style="fill:#9f36ff;"/><ellipse id="CALVES" cx="1670.534" cy="5238.471" rx="74.347" ry="369.091" style="fill:#9f36ff;"/><path id="TIBIALIS" d="M1413.113,5606.456c-40.741,4.891 -93.531,-155.343 -117.813,-357.597c-24.282,-202.255 -10.92,-370.431 29.82,-375.322c40.741,-4.891 93.531,155.343 117.813,357.597c24.282,202.255 10.92,370.431 -29.82,375.322Z" style="fill:#9f36ff;"/><path id="TIBIALIS1" serif:id="TIBIALIS" d="M2473.221,5605.074c-40.587,-6.035 -49.213,-174.521 -19.252,-376.012c29.961,-201.492 87.238,-360.178 127.824,-354.142c40.587,6.035 49.213,174.521 19.252,376.012c-29.961,201.492 -87.238,360.178 -127.824,354.142Z" style="fill:#9f36ff;"/><ellipse id="OBLIQUES" cx="1521.841" cy="2422.625" rx="148.694" ry="371.455" style="fill:#9f36ff;"/><ellipse id="CHEST_MIDDLE1" serif:id="CHEST_MIDDLE" cx="2292.307" cy="1729.308" rx="310.283" ry="162.529" style="fill:#9f36ff;"/><path id="CHEST_LOWER1" serif:id="CHEST_LOWER" d="M2285.009,1832.915c-154.595,10.341 -276.837,67.62 -272.809,127.831c4.028,60.211 132.809,100.699 287.404,90.357c154.595,-10.341 276.837,-67.62 272.809,-127.831c-4.028,-60.211 -132.809,-100.699 -287.404,-90.357Z" style="fill:#9f36ff;"/><path id="CHEST_UPPER1" serif:id="CHEST_UPPER" d="M2571.598,1592.515c13.42,-50.429 -84.222,-120.255 -217.909,-155.832c-133.688,-35.578 -253.121,-23.52 -266.541,26.908c-13.42,50.429 84.222,120.255 217.909,155.832c133.688,35.578 253.121,23.52 266.541,-26.908Z" style="fill:#9f36ff;"/><path id="DELT_FRONT1" serif:id="DELT_FRONT" d="M2865.619,1587.784c28.185,-43.918 -43.457,-140.235 -159.884,-214.954c-116.427,-74.719 -233.834,-99.725 -262.018,-55.808c-28.185,43.918 43.457,140.235 159.884,214.954c116.427,74.719 233.834,99.725 262.018,55.808Z" style="fill:#9f36ff;"/><path id="DELT_SIDE1" serif:id="DELT_SIDE" d="M2818.746,1820.605c57.88,-22.729 83.127,-96.552 56.345,-164.754c-26.782,-68.201 -95.516,-105.119 -153.396,-82.391c-57.88,22.729 -83.127,96.552 -56.345,164.754c26.782,68.201 95.516,105.119 153.396,82.391Z" style="fill:#9f36ff;"/><path id="BICEPS1" serif:id="BICEPS" d="M2920.306,2420.778c92.02,-36.135 115.148,-196.821 51.617,-358.607c-63.531,-161.785 -189.819,-263.798 -281.839,-227.662c-92.02,36.135 -115.148,196.821 -51.617,358.607c63.531,161.785 189.819,263.798 281.839,227.662Z" style="fill:#9f36ff;"/><path id="FOREARMS1" serif:id="FOREARMS" d="M3174.527,3152.938c92.02,-36.135 103.584,-226.271 25.809,-424.329c-77.776,-198.059 -215.628,-329.52 -307.647,-293.385c-92.02,36.135 -103.584,226.271 -25.809,424.329c77.776,198.059 215.628,329.52 307.647,293.385Z" style="fill:#9f36ff;"/><ellipse id="QUADS1" serif:id="QUADS" cx="2375.808" cy="3898.047" rx="265.124" ry="669.327" style="fill:#9f36ff;"/><ellipse id="CALVES1" serif:id="CALVES" cx="2239.525" cy="5238.471" rx="74.347" ry="369.091" style="fill:#9f36ff;"/><ellipse id="OBLIQUES1" serif:id="OBLIQUES" cx="2388.219" cy="2422.625" rx="148.694" ry="371.455" style="fill:#9f36ff;"/><ellipse id="CALVES2" serif:id="CALVES" cx="5959.97" cy="5161.639" rx="254.607" ry="445.923" style="fill:#9f36ff;"/><path id="HAMSTRINGS" d="M5929.165,4615.236c140.648,28.251 297.806,-162.734 350.733,-426.226c52.926,-263.492 -18.293,-500.35 -158.941,-528.602c-140.648,-28.251 -297.806,162.734 -350.733,426.226c-52.926,263.492 18.293,500.35 158.941,528.602Z" style="fill:#9f36ff;"/><path id="GLUTES" d="M6179.184,3646.427c163.739,-50.042 247.386,-251.941 186.677,-450.583c-60.709,-198.642 -242.932,-319.286 -406.67,-269.244c-163.739,50.042 -247.386,251.941 -186.677,450.583c60.709,198.642 242.932,319.286 406.67,269.244Z" style="fill:#9f36ff;"/><ellipse id="LOWER_BACK" cx="6385.596" cy="2837.342" rx="310.22" ry="376.347" style="fill:#9f36ff;"/><ellipse id="TRAPS_MID" cx="6385.596" cy="1878.845" rx="310.22" ry="534.869" style="fill:#9f36ff;"/><path id="TRAPS_UPPER" d="M5963.052,1292.294c0,64.405 189.336,116.694 422.544,116.694c233.209,0 422.544,-52.289 422.544,-116.694c0,-64.405 -189.336,-116.694 -422.544,-116.694c-233.209,0 -422.544,52.289 -422.544,116.694Z" style="fill:#9f36ff;"/><path id="DELT_REAR" d="M5423.716,1724.916c56.727,52.025 172.512,18.23 258.401,-75.421c85.888,-93.651 109.564,-211.921 52.837,-263.946c-56.727,-52.025 -172.512,-18.23 -258.401,75.421c-85.888,93.651 -109.564,211.921 -52.837,263.946Z" style="fill:#9f36ff;"/><path id="TRICEPS_LONG" d="M5515.436,2486.39c59.599,11.787 136.619,-123.421 171.886,-301.746c35.267,-178.325 15.513,-332.672 -44.087,-344.459c-59.599,-11.787 -136.619,123.421 -171.886,301.746c-35.267,178.325 -15.513,332.672 44.087,344.459Z" style="fill:#9f36ff;"/><path id="TRICEPS_LATERAL" d="M5328.938,2396.249c59.599,11.787 136.619,-123.421 171.886,-301.746c35.267,-178.325 15.513,-332.672 -44.087,-344.459c-59.599,-11.787 -136.619,123.421 -171.886,301.746c-35.267,178.325 -15.513,332.672 44.087,344.459Z" style="fill:#9f36ff;"/><path id="LATS" d="M6105.367,2672.252c111.151,-35.911 127.709,-293.126 36.952,-574.031c-90.757,-280.905 -254.68,-479.809 -365.831,-443.897c-111.151,35.911 -127.709,293.126 -36.952,574.031c90.757,280.905 254.68,479.809 365.831,443.897Z" style="fill:#9f36ff;"/><path id="ABDUCTORS" d="M5709.014,4219.026c24.154,1.266 52.751,-169.158 63.821,-380.339c11.07,-211.181 0.446,-383.661 -23.708,-384.927c-24.154,-1.266 -52.751,169.158 -63.821,380.339c-11.07,211.181 -0.446,383.661 23.708,384.927Z" style="fill:#9f36ff;"/><ellipse id="CALVES3" serif:id="CALVES" cx="6815.918" cy="5161.639" rx="254.607" ry="445.923" style="fill:#9f36ff;"/><path id="HAMSTRINGS1" serif:id="HAMSTRINGS" d="M6846.722,4615.236c-140.648,28.251 -297.806,-162.734 -350.733,-426.226c-52.926,-263.492 18.293,-500.35 158.941,-528.602c140.648,-28.251 297.806,162.734 350.733,426.226c52.926,263.492 -18.293,500.35 -158.941,528.602Z" style="fill:#9f36ff;"/><path id="GLUTES1" serif:id="GLUTES" d="M6596.703,3646.427c-163.739,-50.042 -247.386,-251.941 -186.677,-450.583c60.709,-198.642 242.932,-319.286 406.67,-269.244c163.739,50.042 247.386,251.941 186.677,450.583c-60.709,198.642 -242.932,319.286 -406.67,269.244Z" style="fill:#9f36ff;"/><path id="DELT_REAR1" serif:id="DELT_REAR" d="M7352.171,1724.916c-56.727,52.025 -172.512,18.23 -258.401,-75.421c-85.888,-93.651 -109.564,-211.921 -52.837,-263.946c56.727,-52.025 172.512,-18.23 258.401,75.421c85.888,93.651 109.564,211.921 52.837,263.946Z" style="fill:#9f36ff;"/><path id="TRICEPS_LONG1" serif:id="TRICEPS_LONG" d="M7260.452,2486.39c-59.599,11.787 -136.619,-123.421 -171.886,-301.746c-35.267,-178.325 -15.513,-332.672 44.087,-344.459c59.599,-11.787 136.619,123.421 171.886,301.746c35.267,178.325 15.513,332.672 -44.087,344.459Z" style="fill:#9f36ff;"/><path id="TRICEPS_LATERAL1" serif:id="TRICEPS_LATERAL" d="M7446.949,2396.249c-59.599,11.787 -136.619,-123.421 -171.886,-301.746c-35.267,-178.325 -15.513,-332.672 44.087,-344.459c59.599,-11.787 136.619,123.421 171.886,301.746c35.267,178.325 15.513,332.672 -44.087,344.459Z" style="fill:#9f36ff;"/><path id="LATS1" serif:id="LATS" d="M6670.52,2672.252c-111.151,-35.911 -127.709,-293.126 -36.952,-574.031c90.757,-280.905 254.68,-479.809 365.831,-443.897c111.151,35.911 127.709,293.126 36.952,574.031c-90.757,280.905 -254.68,479.809 -365.831,443.897Z" style="fill:#9f36ff;"/><path id="ABDUCTORS1" serif:id="ABDUCTORS" d="M7066.873,4219.026c-24.154,1.266 -52.751,-169.158 -63.821,-380.339c-11.07,-211.181 -0.446,-383.661 23.708,-384.927c24.154,-1.266 52.751,169.158 63.821,380.339c11.07,211.181 0.446,383.661 -23.708,384.927Z" style="fill:#9f36ff;"/></svg>